<svg width="41" height="41" viewBox="0 0 41 41" fill="none" xmlns="http://www.w3.org/2000/svg">
<g clip-path="url(#clip0_1_214)">
<path d="M20.5 41C31.8218 41 41 31.8218 41 20.5C41 9.17816 31.8218 0 20.5 0C9.17816 0 0 9.17816 0 20.5C0 31.8218 9.17816 41 20.5 41Z" fill="#E7D0B1"/>
<path d="M27.8492 16.9345C21.9281 16.9345 21.9205 22.8333 21.9205 22.8636C21.9205 22.8636 21.5148 28.7697 27.8492 28.7697C27.8492 28.7697 33.1319 29.0701 33.1319 24.6594H30.4193C30.4193 24.6594 30.5092 26.3199 27.9395 26.3199C27.9395 26.3199 25.2269 26.5004 25.2269 23.6372H33.2222C33.2222 23.6372 34.1014 16.9345 27.8492 16.9345ZM25.1966 21.5707C25.1966 21.5707 25.5273 19.1962 27.9095 19.1962C30.2991 19.1962 30.2614 21.5707 30.2614 21.5707H25.1966ZM18.4193 20.0531C18.4193 20.0531 20.7712 19.8802 20.7712 17.115C20.7712 14.3575 18.8475 13.0046 16.4054 13.0046H8.37207V28.4463H16.4046C16.4046 28.4463 21.3116 28.5969 21.3116 23.8854C21.3116 23.8854 21.5225 20.0531 18.4193 20.0531ZM11.9116 15.7472H16.405C16.405 15.7472 17.4947 15.7472 17.4947 17.3551C17.4947 18.963 16.8559 19.1962 16.1269 19.1962H11.9116V15.7472ZM16.1799 25.7038H11.9116V21.5707H16.405C16.405 21.5707 18.0359 21.5557 18.0282 23.6972C18.0282 25.5009 16.8187 25.6888 16.1799 25.7038ZM24.5278 13.9138V15.8152H30.9002V13.9138H24.5278Z" fill="#181818"/>
</g>
<defs>
<clipPath id="clip0_1_214">
<rect width="41" height="41" fill="white"/>
</clipPath>
</defs>
</svg>
