<svg width="41" height="41" viewBox="0 0 41 41" fill="none" xmlns="http://www.w3.org/2000/svg">
<g clip-path="url(#clip0_1_220)">
<path d="M20.5 41C31.8218 41 41 31.8219 41 20.5C41 9.17819 31.8218 3.05176e-05 20.5 3.05176e-05C9.17816 3.05176e-05 0 9.17819 0 20.5C0 31.8219 9.17816 41 20.5 41Z" fill="#E7D0B1"/>
<path d="M12.5011 10C13.8804 10 15 11.1327 15 12.528C15 13.9239 13.8804 15.0565 12.5011 15.0565C11.1165 15.0565 10 13.9239 10 12.528C10 11.1327 11.1165 10 12.5011 10ZM10.3423 16.9729H14.658V31H10.3423V16.9729Z" fill="#181818"/>
<path d="M18 17.339H21.9965V19.2065H22.0537C22.6098 18.1325 23.9701 17 25.9985 17C30.22 17 31 19.8285 31 23.5077V31H26.8313V24.3566C26.8313 22.7724 26.8044 20.7344 24.6648 20.7344C22.4954 20.7344 22.1643 22.4611 22.1643 24.2432V31H18V17.339Z" fill="#181818"/>
</g>
<defs>
<clipPath id="clip0_1_220">
<rect width="41" height="41" fill="white"/>
</clipPath>
</defs>
</svg>
