<svg width="41" height="41" viewBox="0 0 41 41" fill="none" xmlns="http://www.w3.org/2000/svg">
<circle cx="20.5" cy="20.5" r="16.5" fill="#181818"/>
<path d="M15.5062 11.2504C10.9306 14.5468 9.8892 20.9264 13.1856 25.502C13.407 25.8136 13.448 26.2236 13.2922 26.5762L12.1196 29.1674L15.5062 28.2408C15.5964 28.2162 15.6948 28.1998 15.7932 28.1998C15.9818 28.1998 16.1704 28.249 16.3426 28.3474C17.9006 29.2576 19.68 29.7414 21.484 29.7414C23.6242 29.7414 25.7152 29.069 27.4536 27.8144C32.0292 24.518 33.0706 18.1384 29.7742 13.5628C26.4778 8.98724 20.0818 7.95404 15.5062 11.2504ZM27.5438 23.493C27.1666 24.4114 26.2236 25.01 25.2642 25.1904C24.3458 25.3708 23.5914 25.0756 22.7468 24.7968C21.9924 24.5344 21.2626 24.19 20.582 23.7718C19.229 22.9354 18.0564 21.8366 17.1134 20.5574C16.8264 20.1638 16.5558 19.762 16.318 19.3438C15.99 18.7944 15.703 18.204 15.5554 17.5726C15.4898 17.3102 15.457 17.0396 15.457 16.7772C15.4488 15.826 15.8096 14.8748 16.5558 14.2598C16.9904 13.9072 17.63 13.7514 18.122 14.0302C18.655 14.3254 18.9256 15.0798 19.1716 15.6128C19.3602 16.0228 19.5734 16.5722 19.4996 17.0314C19.4258 17.4988 19.0568 17.8924 18.7616 18.2368C18.5648 18.4664 18.532 18.6714 18.696 18.9174C19.6636 20.5328 21.0166 21.7054 22.7714 22.4106C23.0092 22.509 23.1978 22.4762 23.3536 22.2876C23.657 21.9104 23.9522 21.1806 24.4278 20.9838C25.0428 20.7378 25.7152 21.0822 26.2318 21.3938C26.7156 21.6808 27.5192 22.0334 27.6504 22.632C27.6996 22.919 27.6586 23.2224 27.5438 23.493Z" fill="#E7D0B1"/>
<path d="M20.5 0C9.2004 0 0 9.2004 0 20.5C0 31.7996 9.2004 41 20.5 41C31.7996 41 41 31.8078 41 20.5C41 9.1922 31.8078 0 20.5 0ZM21.4676 31.9062C19.434 31.9062 17.4332 31.406 15.6374 30.4466L10.455 31.8652C10.209 31.9308 9.9548 31.9144 9.7252 31.8078C9.184 31.5618 8.938 30.9222 9.1922 30.3728L11.0782 26.2318C9.7826 24.2392 9.0938 21.9022 9.102 19.5242C9.102 12.7018 14.6534 7.1504 21.4758 7.1504C28.2982 7.1504 33.8496 12.7018 33.8496 19.5242C33.8496 26.3466 28.29 31.9062 21.4676 31.9062Z" fill="#E7D0B1"/>
</svg>
